<?xml version="1.0" standalone="no"?>
<!DOCTYPE svg PUBLIC "-//W3C//DTD SVG 20010904//EN"
 "http://www.w3.org/TR/2001/REC-SVG-20010904/DTD/svg10.dtd">
<svg version="1.0" xmlns="http://www.w3.org/2000/svg"
 width="144.000000pt" height="144.000000pt" viewBox="0 0 144.000000 144.000000"
 preserveAspectRatio="xMidYMid meet">
<metadata>
Created by potrace 1.11, written by Peter Selinger 2001-2013
</metadata>
<g transform="translate(0.000000,144.000000) scale(0.100000,-0.100000)"
fill="#000000" stroke="none">
<path d="M120 1412 c-14 -2 -34 -12 -46 -23 -19 -18 -20 -29 -19 -176 1 -142
11 -213 30 -213 4 0 3 6 -1 13 -6 9 -5 9 7 0 8 -6 27 -13 44 -15 18 -2 31 -10
33 -20 2 -13 -4 -16 -30 -14 -24 2 -40 -4 -59 -23 -25 -26 -25 -27 -25 -194 1
-188 0 -186 76 -197 29 -4 36 -10 38 -32 3 -25 1 -27 -32 -26 -19 1 -45 -6
-58 -14 -23 -15 -23 -19 -23 -174 0 -99 4 -166 11 -178 8 -12 27 -21 55 -25
33 -5 45 -11 47 -26 9 -46 -4 -45 556 -45 400 0 535 3 544 12 7 7 12 23 12 35
0 13 6 23 13 22 34 -4 66 3 83 18 17 16 19 32 17 158 0 77 -1 152 -2 167 -1
33 -39 55 -87 52 -30 -2 -31 0 -25 24 6 21 15 28 42 33 73 11 74 14 74 204 0
162 -1 171 -22 188 -12 9 -36 18 -55 20 -22 2 -34 8 -36 20 -3 13 2 16 20 13
32 -5 75 19 84 46 4 13 7 94 7 181 0 153 -1 159 -23 174 -20 14 -91 16 -624
17 -331 1 -612 -1 -626 -2z"/>
</g>
</svg>
